<mxfile host="app.diagrams.net" modified="2021-04-30T10:48:55.745Z" agent="5.0 (Windows NT 10.0; Win64; x64) AppleWebKit/537.36 (KHTML, like Gecko) Chrome/90.0.4430.93 Safari/537.36" etag="go7vlaHAk3kv20rZEFdg" version="14.6.6" type="github">
  <diagram id="oyopK26iYF86LUZck6Hh" name="Page-1">
    <mxGraphModel dx="1038" dy="547" grid="1" gridSize="10" guides="1" tooltips="1" connect="1" arrows="1" fold="1" page="1" pageScale="1" pageWidth="827" pageHeight="1169" math="0" shadow="0">
      <root>
        <mxCell id="0" />
        <mxCell id="1" parent="0" />
        <mxCell id="5JPAob9po4CxYcs8UEPf-5" value="&amp;nbsp; Beyond FFC Subscription" style="rounded=1;whiteSpace=wrap;html=1;align=left;dashed=1;" vertex="1" parent="1">
          <mxGeometry x="720" y="380" width="240" height="220" as="geometry" />
        </mxCell>
        <mxCell id="rAvEq29Ckbkx6i7ZEFiu-17" value="Validate&lt;br&gt;event&lt;br&gt;schema" style="edgeStyle=orthogonalEdgeStyle;curved=1;rounded=0;orthogonalLoop=1;jettySize=auto;html=1;strokeWidth=2;" parent="1" source="rAvEq29Ckbkx6i7ZEFiu-1" target="rAvEq29Ckbkx6i7ZEFiu-16" edge="1">
          <mxGeometry relative="1" as="geometry" />
        </mxCell>
        <mxCell id="rAvEq29Ckbkx6i7ZEFiu-1" value="&lt;font style=&quot;font-size: 10px&quot;&gt;ffc-protective-monitoring&lt;/font&gt;" style="rounded=1;whiteSpace=wrap;html=1;verticalAlign=top;" parent="1" vertex="1">
          <mxGeometry x="460" y="260" width="120" height="60" as="geometry" />
        </mxCell>
        <mxCell id="rAvEq29Ckbkx6i7ZEFiu-3" value="" style="shape=image;html=1;verticalAlign=top;verticalLabelPosition=bottom;labelBackgroundColor=#ffffff;imageAspect=0;aspect=fixed;image=https://cdn0.iconfinder.com/data/icons/logos-21/40/NPM-128.png" parent="1" vertex="1">
          <mxGeometry x="500" y="282" width="38" height="38" as="geometry" />
        </mxCell>
        <mxCell id="rAvEq29Ckbkx6i7ZEFiu-6" value="Send event" style="edgeStyle=orthogonalEdgeStyle;rounded=0;orthogonalLoop=1;jettySize=auto;html=1;entryX=0;entryY=0.5;entryDx=0;entryDy=0;strokeWidth=2;" parent="1" source="rAvEq29Ckbkx6i7ZEFiu-4" target="rAvEq29Ckbkx6i7ZEFiu-1" edge="1">
          <mxGeometry relative="1" as="geometry" />
        </mxCell>
        <mxCell id="rAvEq29Ckbkx6i7ZEFiu-4" value="ffc-microservice" style="rounded=1;whiteSpace=wrap;html=1;verticalAlign=top;" parent="1" vertex="1">
          <mxGeometry x="220" y="260" width="120" height="60" as="geometry" />
        </mxCell>
        <mxCell id="rAvEq29Ckbkx6i7ZEFiu-5" value="" style="shape=image;html=1;verticalAlign=top;verticalLabelPosition=bottom;labelBackgroundColor=#ffffff;imageAspect=0;aspect=fixed;image=https://cdn4.iconfinder.com/data/icons/logos-and-brands/512/233_Node_Js_logo-128.png" parent="1" vertex="1">
          <mxGeometry x="266" y="285" width="28" height="28" as="geometry" />
        </mxCell>
        <mxCell id="rAvEq29Ckbkx6i7ZEFiu-9" value="Environment Variable" style="edgeStyle=orthogonalEdgeStyle;rounded=0;orthogonalLoop=1;jettySize=auto;html=1;entryX=0.5;entryY=0;entryDx=0;entryDy=0;strokeWidth=2;" parent="1" source="rAvEq29Ckbkx6i7ZEFiu-7" target="rAvEq29Ckbkx6i7ZEFiu-4" edge="1">
          <mxGeometry relative="1" as="geometry" />
        </mxCell>
        <mxCell id="rAvEq29Ckbkx6i7ZEFiu-7" value="PROTECTIVE_MONITORING_URL" style="text;html=1;strokeColor=none;fillColor=none;align=center;verticalAlign=middle;whiteSpace=wrap;rounded=0;" parent="1" vertex="1">
          <mxGeometry x="260" y="180" width="40" height="20" as="geometry" />
        </mxCell>
        <mxCell id="rAvEq29Ckbkx6i7ZEFiu-12" value="Not set" style="edgeStyle=orthogonalEdgeStyle;rounded=0;orthogonalLoop=1;jettySize=auto;html=1;entryX=0.25;entryY=0;entryDx=0;entryDy=0;strokeWidth=2;curved=1;" parent="1" source="rAvEq29Ckbkx6i7ZEFiu-11" target="rAvEq29Ckbkx6i7ZEFiu-7" edge="1">
          <mxGeometry x="0.4724" y="-10" relative="1" as="geometry">
            <mxPoint as="offset" />
          </mxGeometry>
        </mxCell>
        <mxCell id="rAvEq29Ckbkx6i7ZEFiu-11" value="Local development" style="verticalLabelPosition=bottom;aspect=fixed;html=1;verticalAlign=top;strokeColor=none;align=center;outlineConnect=0;shape=mxgraph.citrix.laptop_2;" parent="1" vertex="1">
          <mxGeometry x="88" y="50" width="80.46" height="60" as="geometry" />
        </mxCell>
        <mxCell id="rAvEq29Ckbkx6i7ZEFiu-15" value="Set based on environment&lt;br&gt;through Helm" style="edgeStyle=orthogonalEdgeStyle;curved=1;rounded=0;orthogonalLoop=1;jettySize=auto;html=1;entryX=0.75;entryY=0;entryDx=0;entryDy=0;strokeWidth=2;" parent="1" source="rAvEq29Ckbkx6i7ZEFiu-13" target="rAvEq29Ckbkx6i7ZEFiu-7" edge="1">
          <mxGeometry x="-0.2" y="10" relative="1" as="geometry">
            <mxPoint as="offset" />
          </mxGeometry>
        </mxCell>
        <mxCell id="rAvEq29Ckbkx6i7ZEFiu-13" value="Azure App Config" style="rounded=1;whiteSpace=wrap;html=1;verticalAlign=top;" parent="1" vertex="1">
          <mxGeometry x="440" y="50" width="120" height="60" as="geometry" />
        </mxCell>
        <mxCell id="rAvEq29Ckbkx6i7ZEFiu-14" value="" style="aspect=fixed;html=1;points=[];align=center;image;fontSize=12;image=img/lib/mscae/App_Configuration.svg;" parent="1" vertex="1">
          <mxGeometry x="485.2" y="74" width="29.59" height="29" as="geometry" />
        </mxCell>
        <mxCell id="rAvEq29Ckbkx6i7ZEFiu-23" value="Yes" style="edgeStyle=orthogonalEdgeStyle;curved=1;rounded=0;orthogonalLoop=1;jettySize=auto;html=1;strokeWidth=2;fontSize=11;" parent="1" source="rAvEq29Ckbkx6i7ZEFiu-16" target="rAvEq29Ckbkx6i7ZEFiu-22" edge="1">
          <mxGeometry relative="1" as="geometry">
            <mxPoint as="offset" />
          </mxGeometry>
        </mxCell>
        <mxCell id="rAvEq29Ckbkx6i7ZEFiu-16" value="Is evironment variable set?" style="rhombus;whiteSpace=wrap;html=1;rounded=1;verticalAlign=middle;fontSize=9;fillColor=#fff2cc;strokeColor=#d6b656;" parent="1" vertex="1">
          <mxGeometry x="670" y="250" width="80" height="80" as="geometry" />
        </mxCell>
        <mxCell id="rAvEq29Ckbkx6i7ZEFiu-19" value="Developer" style="verticalLabelPosition=bottom;html=1;verticalAlign=top;align=center;strokeColor=none;fillColor=#00BEF2;shape=mxgraph.azure.user;fontSize=12;" parent="1" vertex="1">
          <mxGeometry x="28" y="40" width="47.5" height="50" as="geometry" />
        </mxCell>
        <mxCell id="rAvEq29Ckbkx6i7ZEFiu-26" value="Enrich and publish event" style="edgeStyle=orthogonalEdgeStyle;curved=1;rounded=0;orthogonalLoop=1;jettySize=auto;html=1;strokeWidth=2;fontSize=11;" parent="1" source="rAvEq29Ckbkx6i7ZEFiu-22" target="rAvEq29Ckbkx6i7ZEFiu-25" edge="1">
          <mxGeometry relative="1" as="geometry" />
        </mxCell>
        <mxCell id="rAvEq29Ckbkx6i7ZEFiu-22" value="Azure Logic App" style="whiteSpace=wrap;html=1;rounded=1;fontSize=11;verticalAlign=top;" parent="1" vertex="1">
          <mxGeometry x="818" y="260" width="120" height="60" as="geometry" />
        </mxCell>
        <mxCell id="rAvEq29Ckbkx6i7ZEFiu-24" value="" style="aspect=fixed;html=1;points=[];align=center;image;fontSize=12;image=img/lib/mscae/Logic_Apps.svg;fillColor=none;" parent="1" vertex="1">
          <mxGeometry x="859.41" y="285" width="35" height="27.3" as="geometry" />
        </mxCell>
        <mxCell id="5JPAob9po4CxYcs8UEPf-3" value="" style="edgeStyle=orthogonalEdgeStyle;rounded=0;orthogonalLoop=1;jettySize=auto;html=1;strokeWidth=2;" edge="1" parent="1" source="rAvEq29Ckbkx6i7ZEFiu-25" target="5JPAob9po4CxYcs8UEPf-2">
          <mxGeometry relative="1" as="geometry" />
        </mxCell>
        <mxCell id="rAvEq29Ckbkx6i7ZEFiu-25" value="Azure Event Hub" style="whiteSpace=wrap;html=1;rounded=1;fontSize=11;verticalAlign=top;" parent="1" vertex="1">
          <mxGeometry x="818" y="400" width="120" height="60" as="geometry" />
        </mxCell>
        <mxCell id="rAvEq29Ckbkx6i7ZEFiu-27" value="" style="aspect=fixed;html=1;points=[];align=center;image;fontSize=12;image=img/lib/azure2/analytics/Event_Hubs.svg;fillColor=none;" parent="1" vertex="1">
          <mxGeometry x="860.5" y="423" width="35" height="31.34" as="geometry" />
        </mxCell>
        <mxCell id="5JPAob9po4CxYcs8UEPf-2" value="Azure Sentinel" style="whiteSpace=wrap;html=1;rounded=1;fontSize=11;verticalAlign=top;" vertex="1" parent="1">
          <mxGeometry x="817.91" y="520" width="120" height="60" as="geometry" />
        </mxCell>
        <mxCell id="5JPAob9po4CxYcs8UEPf-4" value="" style="aspect=fixed;html=1;points=[];align=center;image;fontSize=12;image=img/lib/azure2/security/Azure_Sentinel.svg;" vertex="1" parent="1">
          <mxGeometry x="863.3199999999999" y="544" width="27.17" height="33" as="geometry" />
        </mxCell>
      </root>
    </mxGraphModel>
  </diagram>
</mxfile>
